<svg width="16" height="16" viewBox="0 0 16 16" fill="none" xmlns="http://www.w3.org/2000/svg">
<path d="M3 7H2V9H3V7Z" fill="white"/>
<path d="M14 7H13V9H14V7Z" fill="white"/>
<path d="M7 2V3H9V2H7Z" fill="white"/>
<path d="M7 13V14H9V13H7Z" fill="white"/>
<path d="M3 2H2V4H3V2Z" fill="white"/>
<path d="M2 2V3H4V2H2Z" fill="white"/>
<path d="M13 2H14V4H13V2Z" fill="white"/>
<path d="M14 2L14 3L12 3L12 2L14 2Z" fill="white"/>
<path d="M13 14H14V12H13V14Z" fill="white"/>
<path d="M14 14V13H12V14H14Z" fill="white"/>
<path d="M3 12H2V14H3V12Z" fill="white"/>
<path d="M2 13V14H4V13H2Z" fill="white"/>
</svg>
