<svg width="10" height="10" viewBox="0 0 10 10" fill="none" xmlns="http://www.w3.org/2000/svg">
<path d="M3.75025 9.99999C4.71606 9.99999 5.4999 9.25333 5.4999 8.33333V6.66666H3.75025C2.78445 6.66666 2.0006 7.41333 2.0006 8.33333C2.0006 9.25333 2.78445 9.99999 3.75025 9.99999Z" fill="#0ACF83"/>
<path d="M2.0006 5C2.0006 4.08 2.78445 3.33334 3.75025 3.33334H5.4999V6.66667H3.75025C2.78445 6.66667 2.0006 5.92 2.0006 5Z" fill="#A259FF"/>
<path d="M2.00187 1.66667C2.00187 0.746667 2.78572 0 3.75152 0H5.50117V3.33333H3.75152C2.78572 3.33333 2.00187 2.58667 2.00187 1.66667Z" fill="#F24E1E"/>
<path d="M5.5 0H7.24965C8.21546 0 8.9993 0.746667 8.9993 1.66667C8.9993 2.58667 8.21546 3.33333 7.24965 3.33333H5.5V0Z" fill="#FF7262"/>
<path d="M8.9993 5C8.9993 5.92 8.21546 6.66667 7.24965 6.66667C6.28384 6.66667 5.5 5.92 5.5 5C5.5 4.08 6.28384 3.33334 7.24965 3.33334C8.21546 3.33334 8.9993 4.08 8.9993 5Z" fill="#1ABCFE"/>
</svg>
