<svg width="16" height="16" viewBox="0 0 16 16" fill="none" xmlns="http://www.w3.org/2000/svg">
<g opacity="0.2">
<path d="M6 11.5C6 12.3284 5.32842 13 4.5 13C3.67158 13 3 12.3284 3 11.5C3 10.6716 3.67158 10 4.5 10C5.32842 10 6 10.6716 6 11.5Z" fill="#3A3A3A"/>
<path d="M14 3.5C14 4.32843 13.3284 5 12.5 5C11.6716 5 11 4.32843 11 3.5C11 2.67157 11.6716 2 12.5 2C13.3284 2 14 2.67157 14 3.5Z" fill="#3A3A3A"/>
<path d="M6 4.5C7.37917 3.39666 8.71816 3.22345 10 3L10 4C8.83362 4.20332 7.62083 4.60334 6.5 5.5C5.57575 6.2394 5.18565 7.90817 5 9L3.97198 9C4.16183 7.67752 4.62416 5.60067 6 4.5Z" fill="#3A3A3A"/>
</g>
</svg>
