<svg width="16" height="16" viewBox="0 0 16 16" fill="none" xmlns="http://www.w3.org/2000/svg">
<path fill-rule="evenodd" clip-rule="evenodd" d="M14.0769 3.90256C14.0769 3.40615 13.6615 3 13.1538 3H11.7692H10.3846C10.3846 1.99815 9.56308 1 8.53846 1C7.51385 1 6.69231 1.99815 6.69231 3H3.92308C3.41538 3 3 3.40615 3 3.90256V14.0974C3 14.5938 3.41538 15 3.92308 15H13.1538C13.4123 14.9819 13.6246 14.8917 13.8 14.7292C13.9754 14.5668 14.0585 14.3502 14.0769 14.0974V3.90256ZM4 4V14H13V4H4ZM8.5 3C8.77614 3 9 2.77614 9 2.5C9 2.22386 8.77614 2 8.5 2C8.22386 2 8 2.22386 8 2.5C8 2.77614 8.22386 3 8.5 3Z" fill="white"/>
<rect x="6" y="6" width="5" height="1" fill="white"/>
<rect x="6" y="8" width="5" height="1" fill="white"/>
<rect x="6" y="10" width="5" height="1" fill="white"/>
</svg>
