<svg width="28" height="28" viewBox="0 0 28 28" fill="none" xmlns="http://www.w3.org/2000/svg">
<path d="M13.25 23.3333C13.25 25.5212 11.5446 27.25 9.5009 27.25C7.45723 27.25 5.7518 25.5212 5.7518 23.3333C5.7518 21.1455 7.45723 19.4167 9.5009 19.4167H13.25V23.3333Z" stroke="white" stroke-width="1.5"/>
<path d="M5.7518 14C5.7518 11.8121 7.45723 10.0833 9.5009 10.0833H13.25V17.9167H9.5009C7.45723 17.9167 5.7518 16.1879 5.7518 14Z" stroke="white" stroke-width="1.5"/>
<path d="M5.75396 4.66667C5.75396 2.47879 7.45938 0.75 9.50306 0.75H13.2522V8.58333H9.50306C7.45938 8.58333 5.75396 6.85454 5.75396 4.66667Z" stroke="white" stroke-width="1.5"/>
<path d="M14.75 0.75H18.4991C20.5428 0.75 22.2482 2.47879 22.2482 4.66667C22.2482 6.85454 20.5428 8.58333 18.4991 8.58333H14.75V0.75Z" stroke="white" stroke-width="1.5"/>
<path d="M22.2482 14C22.2482 16.1879 20.5428 17.9167 18.4991 17.9167C16.4554 17.9167 14.75 16.1879 14.75 14C14.75 11.8121 16.4554 10.0833 18.4991 10.0833C20.5428 10.0833 22.2482 11.8121 22.2482 14Z" stroke="white" stroke-width="1.5"/>
</svg>
