<svg width="28" height="28" viewBox="0 0 40 40" fill="none" xmlns="http://www.w3.org/2000/svg">
<path fill-rule="evenodd" clip-rule="evenodd" d="M9.66215 10.6444L0.30658 20L9.66215 29.3556L19.0177 20L9.66215 10.6444ZM9.66215 13.908L3.57015 20L9.66215 26.092L15.7542 20L9.66215 13.908Z" fill="white"/>
<path fill-rule="evenodd" clip-rule="evenodd" d="M20.1056 0.201012L10.75 9.55658L20.1056 18.9121L29.4611 9.55658L20.1056 0.201012ZM20.1056 3.46459L14.0136 9.55658L20.1056 15.6486L26.1976 9.55658L20.1056 3.46459Z" fill="white"/>
<path fill-rule="evenodd" clip-rule="evenodd" d="M20.1056 21.0879L10.75 30.4434L20.1056 39.799L29.4611 30.4434L20.1056 21.0879ZM20.1056 24.3514L14.0136 30.4434L20.1056 36.5354L26.1976 30.4434L20.1056 24.3514Z" fill="white"/>
<path fill-rule="evenodd" clip-rule="evenodd" d="M30.549 10.6444L21.1934 20L30.549 29.3556L39.9045 20L30.549 10.6444ZM30.5052 13.9698L24.4132 20.0618L30.5052 26.1538L36.5972 20.0618L30.5052 13.9698Z" fill="white"/>
</svg>
