<svg width="10" height="10" viewBox="0 0 10 10" fill="none" xmlns="http://www.w3.org/2000/svg">
<rect x="0.99295" y="4.19861" width="0.801411" height="1.60282" fill="white"/>
<rect x="8.20564" y="4.19861" width="0.801411" height="1.60282" fill="white"/>
<rect x="4.19859" y="1.79437" width="0.801411" height="1.60282" transform="rotate(-90 4.19859 1.79437)" fill="white"/>
<rect x="4.19859" y="9.00708" width="0.801411" height="1.60282" transform="rotate(-90 4.19859 9.00708)" fill="white"/>
<rect x="0.99295" y="0.99292" width="0.801411" height="1.60282" fill="white"/>
<rect x="0.99295" y="1.79437" width="0.801411" height="1.60282" transform="rotate(-90 0.99295 1.79437)" fill="white"/>
<rect width="0.801411" height="1.60282" transform="matrix(-1 0 0 1 9.00705 0.99292)" fill="white"/>
<rect width="0.801411" height="1.60282" transform="matrix(4.37114e-08 -1 -1 -4.37114e-08 9.00705 1.79437)" fill="white"/>
<rect x="9.00705" y="9.00708" width="0.801411" height="1.60282" transform="rotate(-180 9.00705 9.00708)" fill="white"/>
<rect x="9.00705" y="8.20563" width="0.801411" height="1.60282" transform="rotate(90 9.00705 8.20563)" fill="white"/>
<rect x="0.99295" y="7.40424" width="0.801411" height="1.60282" fill="white"/>
<rect x="0.99295" y="9.00708" width="0.801411" height="1.60282" transform="rotate(-90 0.99295 9.00708)" fill="white"/>
</svg>
