<svg width="10" height="10" viewBox="0 0 10 10" fill="none" xmlns="http://www.w3.org/2000/svg">
<path d="M3.4 6.875C3.4 7.49632 2.86274 8 2.2 8C1.53726 8 1 7.49632 1 6.875C1 6.25368 1.53726 5.75 2.2 5.75C2.86274 5.75 3.4 6.25368 3.4 6.875Z" fill="white"/>
<path d="M9.00001 3.125C9.00001 3.74632 8.46275 4.25 7.80001 4.25C7.13727 4.25 6.60001 3.74632 6.60001 3.125C6.60001 2.50368 7.13727 2 7.80001 2C8.46275 2 9.00001 2.50368 9.00001 3.125Z" fill="white"/>
<path d="M6.27366 3.13676C4.64348 3.56131 3.69292 4.20318 2.73599 5.49198C3.01278 5.55069 3.25328 5.69908 3.4209 5.90286C4.28585 4.88537 5.16065 4.30523 6.50806 3.86086C6.35992 3.67374 6.27229 3.442 6.27229 3.19107C6.27229 3.17286 6.27275 3.15476 6.27366 3.13676Z" fill="white"/>
</svg>
