<svg width="10" height="10" viewBox="0 0 10 10" fill="none" xmlns="http://www.w3.org/2000/svg">
<g opacity="0.2">
<path d="M1.79436 4.19861H0.99295V5.80143H1.79436V4.19861Z" fill="white"/>
<path d="M9.00705 4.19861H8.20564V5.80143H9.00705V4.19861Z" fill="white"/>
<path d="M4.19859 0.992961V1.79437H5.80141V0.992961L4.19859 0.992961Z" fill="white"/>
<path d="M4.19859 8.20567V9.00708H5.80141V8.20567H4.19859Z" fill="white"/>
<path d="M1.79436 0.99292H0.99295V2.59574H1.79436V0.99292Z" fill="white"/>
<path d="M0.99295 0.992962V1.79437H2.59577V0.992962L0.99295 0.992962Z" fill="white"/>
<path d="M8.20564 0.99292H9.00705V2.59574H8.20564V0.99292Z" fill="white"/>
<path d="M9.00705 0.992962L9.00705 1.79437L7.40423 1.79437L7.40423 0.992962L9.00705 0.992962Z" fill="white"/>
<path d="M8.20564 9.00708H9.00705V7.40426H8.20564V9.00708Z" fill="white"/>
<path d="M9.00705 9.00704V8.20563H7.40423V9.00704H9.00705Z" fill="white"/>
<path d="M1.79436 7.40424H0.99295V9.00706H1.79436V7.40424Z" fill="white"/>
<path d="M0.99295 8.20567V9.00708H2.59577V8.20567H0.99295Z" fill="white"/>
</g>
</svg>
