<svg width="10" height="10" viewBox="0 0 10 10" fill="none" xmlns="http://www.w3.org/2000/svg">
<path d="M3.4 6.875C3.4 7.49632 2.86274 8 2.2 8C1.53726 8 1 7.49632 1 6.875C1 6.25368 1.53726 5.75 2.2 5.75C2.86274 5.75 3.4 6.25368 3.4 6.875Z" fill="#3A3A3A"/>
<path d="M9 3.125C9 3.74632 8.46274 4.25 7.8 4.25C7.13726 4.25 6.6 3.74632 6.6 3.125C6.6 2.50368 7.13726 2 7.8 2C8.46274 2 9 2.50368 9 3.125Z" fill="#3A3A3A"/>
<path d="M6.27367 3.13676C4.64349 3.56131 3.69293 4.20318 2.736 5.49198C3.01279 5.55069 3.25329 5.69908 3.42091 5.90286C4.28586 4.88537 5.16066 4.30523 6.50807 3.86086C6.35993 3.67374 6.2723 3.442 6.2723 3.19107C6.2723 3.17286 6.27276 3.15476 6.27367 3.13676Z" fill="#3A3A3A"/>
</svg>
